<svg width="1400" height="540" xmlns="http://www.w3.org/2000/svg">
  <defs>
    <style>
      .chart-bg { fill: #2d2d2d; }
      .stripe { fill: rgba(255,255,255,0.03); }
      .grid-line { stroke: rgba(255,255,255,0.1); stroke-width: 1; }
      .axis-line { stroke: rgba(255,255,255,0.3); stroke-width: 2; }
      .label { fill: #b0b0b0; font-family: -apple-system, BlinkMacSystemFont, "Segoe UI", Roboto, sans-serif; font-size: 14px; }
      .title { fill: #ffffff; font-family: -apple-system, BlinkMacSystemFont, "Segoe UI", Roboto, sans-serif; font-size: 16px; font-weight: normal; }
      .line-elysia { stroke: #8b5cf6; fill: none; stroke-width: 2; }
      .line-kori { stroke: #3b82f6; fill: none; stroke-width: 2; }
      .line-hono { stroke: #f59e0b; fill: none; stroke-width: 2; }
      .line-fastify { stroke: #10b981; fill: none; stroke-width: 2; }
      .line-express { stroke: #ec4899; fill: none; stroke-width: 2; }
      .marker { fill: #2d2d2d; stroke-width: 2; }
    </style>
  </defs>

  <rect class="chart-bg" width="1400" height="540"/>

  <!-- Alternating stripes -->
  <rect class="stripe" x="220" y="60" width="120" height="340"/>
  <rect class="stripe" x="460" y="60" width="120" height="340"/>
  <rect class="stripe" x="700" y="60" width="120" height="340"/>
  <rect class="stripe" x="940" y="60" width="120" height="340"/>
  <rect class="stripe" x="1180" y="60" width="120" height="340"/>

  <!-- Grid lines -->
  <line class="grid-line" x1="100" y1="400" x2="1300" y2="400"/>
  <line class="grid-line" x1="100" y1="332" x2="1300" y2="332"/>
  <line class="grid-line" x1="100" y1="264" x2="1300" y2="264"/>
  <line class="grid-line" x1="100" y1="196" x2="1300" y2="196"/>
  <line class="grid-line" x1="100" y1="128" x2="1300" y2="128"/>
  <line class="grid-line" x1="100" y1="60" x2="1300" y2="60"/>

  <!-- Axes -->
  <line class="axis-line" x1="100" y1="60" x2="100" y2="400"/>
  <line class="axis-line" x1="100" y1="400" x2="1300" y2="400"/>

  <!-- Y-axis labels -->
  <text class="label" x="90" y="405" text-anchor="end">0%</text>
  <text class="label" x="90" y="337" text-anchor="end">20%</text>
  <text class="label" x="90" y="269" text-anchor="end">40%</text>
  <text class="label" x="90" y="201" text-anchor="end">60%</text>
  <text class="label" x="90" y="133" text-anchor="end">80%</text>
  <text class="label" x="90" y="65" text-anchor="end">100%</text>

  <!-- Y-axis title -->
  <text class="title" x="20" y="230" text-anchor="middle" transform="rotate(-90, 20, 230)">Relative Performance (%)</text>

  <!-- X-axis labels -->
  <text class="label" x="160" y="425" text-anchor="middle">①</text>
  <text class="label" x="280" y="425" text-anchor="middle">②</text>
  <text class="label" x="400" y="425" text-anchor="middle">③</text>
  <text class="label" x="520" y="425" text-anchor="middle">④</text>
  <text class="label" x="640" y="425" text-anchor="middle">⑤</text>
  <text class="label" x="760" y="425" text-anchor="middle">⑥</text>
  <text class="label" x="880" y="425" text-anchor="middle">⑦</text>
  <text class="label" x="1000" y="425" text-anchor="middle">⑧</text>
  <text class="label" x="1120" y="425" text-anchor="middle">⑨</text>
  <text class="label" x="1240" y="425" text-anchor="middle">⑩</text>

  <!-- bun/elysia -->
  <polyline class="line-elysia" points="160,60 280,71.77080650657706 400,60 520,60 640,60 760,60 880,60 1000,60 1120,60 1240,60"/>
  <circle class="marker" cx="160" cy="60" r="6" stroke="#8b5cf6"/>
  <circle class="marker" cx="280" cy="71.77080650657706" r="6" stroke="#8b5cf6"/>
  <circle class="marker" cx="400" cy="60" r="6" stroke="#8b5cf6"/>
  <circle class="marker" cx="520" cy="60" r="6" stroke="#8b5cf6"/>
  <circle class="marker" cx="640" cy="60" r="6" stroke="#8b5cf6"/>
  <circle class="marker" cx="760" cy="60" r="6" stroke="#8b5cf6"/>
  <circle class="marker" cx="880" cy="60" r="6" stroke="#8b5cf6"/>
  <circle class="marker" cx="1000" cy="60" r="6" stroke="#8b5cf6"/>
  <circle class="marker" cx="1120" cy="60" r="6" stroke="#8b5cf6"/>
  <circle class="marker" cx="1240" cy="60" r="6" stroke="#8b5cf6"/>

  <!-- deno/kori -->
  <polyline class="line-kori" points="160,248.28310782756176 280,60 400,81.13851914335953 520,182.1571859214214 640,160.99750000055732 760,155.6713487137056 880,73.51749722503803 1000,98.09465220998845 1120,171.27576523986113 1240,68.29081098067144"/>
  <rect class="marker" x="154" y="242.28310782756176" width="12" height="12" stroke="#3b82f6"/>
  <rect class="marker" x="274" y="54" width="12" height="12" stroke="#3b82f6"/>
  <rect class="marker" x="394" y="75.13851914335953" width="12" height="12" stroke="#3b82f6"/>
  <rect class="marker" x="514" y="176.1571859214214" width="12" height="12" stroke="#3b82f6"/>
  <rect class="marker" x="634" y="154.99750000055732" width="12" height="12" stroke="#3b82f6"/>
  <rect class="marker" x="754" y="149.6713487137056" width="12" height="12" stroke="#3b82f6"/>
  <rect class="marker" x="874" y="67.51749722503803" width="12" height="12" stroke="#3b82f6"/>
  <rect class="marker" x="994" y="92.09465220998845" width="12" height="12" stroke="#3b82f6"/>
  <rect class="marker" x="1114" y="165.27576523986113" width="12" height="12" stroke="#3b82f6"/>
  <rect class="marker" x="1234" y="62.29081098067144" width="12" height="12" stroke="#3b82f6"/>

  <!-- deno/hono -->
  <polyline class="line-hono" points="160,255.37409771920645 280,113.83975072018387 400,98.99779895915214 520,183.71573852959335 640,164.72104452208526 760,162.79629475118767 880,112.27320931926101 1000,83.02029096544209 1120,166.32511317424647 1240,77.0510413511783"/>
  <rect class="marker" x="154" y="249.37409771920645" width="12" height="12" stroke="#f59e0b"/>
  <rect class="marker" x="274" y="107.83975072018387" width="12" height="12" stroke="#f59e0b"/>
  <rect class="marker" x="394" y="92.99779895915214" width="12" height="12" stroke="#f59e0b"/>
  <rect class="marker" x="514" y="177.71573852959335" width="12" height="12" stroke="#f59e0b"/>
  <rect class="marker" x="634" y="158.72104452208526" width="12" height="12" stroke="#f59e0b"/>
  <rect class="marker" x="754" y="156.79629475118767" width="12" height="12" stroke="#f59e0b"/>
  <rect class="marker" x="874" y="106.27320931926101" width="12" height="12" stroke="#f59e0b"/>
  <rect class="marker" x="994" y="77.02029096544209" width="12" height="12" stroke="#f59e0b"/>
  <rect class="marker" x="1114" y="160.32511317424647" width="12" height="12" stroke="#f59e0b"/>
  <rect class="marker" x="1234" y="71.0510413511783" width="12" height="12" stroke="#f59e0b"/>

  <!-- bun/hono -->
  <polyline class="line-hono" points="160,226.96886751698375 280,168.85056929530586 400,126.16573261915545 520,135.6563293596148 640,223.42936880416255 760,224.71846568396595 880,194.81596306589208 1000,119.2230468249848 1120,135.57952340273897 1240,99.25652517232851"/>
  <circle class="marker" cx="160" cy="226.96886751698375" r="6" stroke="#f59e0b"/>
  <circle class="marker" cx="280" cy="168.85056929530586" r="6" stroke="#f59e0b"/>
  <circle class="marker" cx="400" cy="126.16573261915545" r="6" stroke="#f59e0b"/>
  <circle class="marker" cx="520" cy="135.6563293596148" r="6" stroke="#f59e0b"/>
  <circle class="marker" cx="640" cy="223.42936880416255" r="6" stroke="#f59e0b"/>
  <circle class="marker" cx="760" cy="224.71846568396595" r="6" stroke="#f59e0b"/>
  <circle class="marker" cx="880" cy="194.81596306589208" r="6" stroke="#f59e0b"/>
  <circle class="marker" cx="1000" cy="119.2230468249848" r="6" stroke="#f59e0b"/>
  <circle class="marker" cx="1120" cy="135.57952340273897" r="6" stroke="#f59e0b"/>
  <circle class="marker" cx="1240" cy="99.25652517232851" r="6" stroke="#f59e0b"/>

  <!-- bun/kori -->
  <polyline class="line-kori" points="160,235.7839907030704 280,173.75588498112464 400,159.96881652836228 520,148.76607470480178 640,225.74276152932083 760,236.03978706927046 880,183.47556131293723 1000,165.34385795112928 1120,207.35290938744873 1240,143.4431849675983"/>
  <circle class="marker" cx="160" cy="235.7839907030704" r="6" stroke="#3b82f6"/>
  <circle class="marker" cx="280" cy="173.75588498112464" r="6" stroke="#3b82f6"/>
  <circle class="marker" cx="400" cy="159.96881652836228" r="6" stroke="#3b82f6"/>
  <circle class="marker" cx="520" cy="148.76607470480178" r="6" stroke="#3b82f6"/>
  <circle class="marker" cx="640" cy="225.74276152932083" r="6" stroke="#3b82f6"/>
  <circle class="marker" cx="760" cy="236.03978706927046" r="6" stroke="#3b82f6"/>
  <circle class="marker" cx="880" cy="183.47556131293723" r="6" stroke="#3b82f6"/>
  <circle class="marker" cx="1000" cy="165.34385795112928" r="6" stroke="#3b82f6"/>
  <circle class="marker" cx="1120" cy="207.35290938744873" r="6" stroke="#3b82f6"/>
  <circle class="marker" cx="1240" cy="143.4431849675983" r="6" stroke="#3b82f6"/>

  <!-- node/fastify -->
  <polyline class="line-fastify" points="160,252.27732594847308 280,208.46275838519765 400,208.62999358545912 520,214.79557346678183 640,249.37978856583257 760,261.93146632690383 880,213.40671157270666 1000,202.65677632141194 1120,196.2870364739364 1240,193.45900054609373"/>
  <polygon class="marker" points="160,245.27732594847308 154,257.27732594847305 166,257.27732594847305" stroke="#10b981"/>
  <polygon class="marker" points="280,201.46275838519765 274,213.46275838519765 286,213.46275838519765" stroke="#10b981"/>
  <polygon class="marker" points="400,201.62999358545912 394,213.62999358545912 406,213.62999358545912" stroke="#10b981"/>
  <polygon class="marker" points="520,207.79557346678183 514,219.79557346678183 526,219.79557346678183" stroke="#10b981"/>
  <polygon class="marker" points="640,242.37978856583257 634,254.37978856583257 646,254.37978856583257" stroke="#10b981"/>
  <polygon class="marker" points="760,254.93146632690383 754,266.93146632690383 766,266.93146632690383" stroke="#10b981"/>
  <polygon class="marker" points="880,206.40671157270666 874,218.40671157270666 886,218.40671157270666" stroke="#10b981"/>
  <polygon class="marker" points="1000,195.65677632141194 994,207.65677632141194 1006,207.65677632141194" stroke="#10b981"/>
  <polygon class="marker" points="1120,189.2870364739364 1114,201.2870364739364 1126,201.2870364739364" stroke="#10b981"/>
  <polygon class="marker" points="1240,186.45900054609373 1234,198.45900054609373 1246,198.45900054609373" stroke="#10b981"/>

  <!-- node/hono -->
  <polyline class="line-hono" points="160,323.51568733682564 280,298.44680019523025 400,313.4057905934976 520,304.7212659901115 640,337.9405090026108 760,327.8948016477388 880,303.7596560563518 1000,304.4054933214478 1120,312.26937186077527 1240,304.9042230389239"/>
  <polygon class="marker" points="160,316.51568733682564 154,328.51568733682564 166,328.51568733682564" stroke="#f59e0b"/>
  <polygon class="marker" points="280,291.44680019523025 274,303.44680019523025 286,303.44680019523025" stroke="#f59e0b"/>
  <polygon class="marker" points="400,306.4057905934976 394,318.4057905934976 406,318.4057905934976" stroke="#f59e0b"/>
  <polygon class="marker" points="520,297.7212659901115 514,309.7212659901115 526,309.7212659901115" stroke="#f59e0b"/>
  <polygon class="marker" points="640,330.9405090026108 634,342.9405090026108 646,342.9405090026108" stroke="#f59e0b"/>
  <polygon class="marker" points="760,320.8948016477388 754,332.8948016477388 766,332.8948016477388" stroke="#f59e0b"/>
  <polygon class="marker" points="880,296.7596560563518 874,308.7596560563518 886,308.7596560563518" stroke="#f59e0b"/>
  <polygon class="marker" points="1000,297.4054933214478 994,309.4054933214478 1006,309.4054933214478" stroke="#f59e0b"/>
  <polygon class="marker" points="1120,305.26937186077527 1114,317.26937186077527 1126,317.26937186077527" stroke="#f59e0b"/>
  <polygon class="marker" points="1240,297.9042230389239 1234,309.9042230389239 1246,309.9042230389239" stroke="#f59e0b"/>

  <!-- node/kori -->
  <polyline class="line-kori" points="160,331.96318453568136 280,306.1360827315708 400,324.19580921119416 520,308.31852630237216 640,341.62017246855163 760,330.84147863839144 880,307.32767146791036 1000,311.75620534498313 1120,308.4311006573522 1240,313.95022806255736"/>
  <polygon class="marker" points="160,324.96318453568136 154,336.96318453568136 166,336.96318453568136" stroke="#3b82f6"/>
  <polygon class="marker" points="280,299.1360827315708 274,311.1360827315708 286,311.1360827315708" stroke="#3b82f6"/>
  <polygon class="marker" points="400,317.19580921119416 394,329.19580921119416 406,329.19580921119416" stroke="#3b82f6"/>
  <polygon class="marker" points="520,301.31852630237216 514,313.31852630237216 526,313.31852630237216" stroke="#3b82f6"/>
  <polygon class="marker" points="640,334.62017246855163 634,346.62017246855163 646,346.62017246855163" stroke="#3b82f6"/>
  <polygon class="marker" points="760,323.84147863839144 754,335.84147863839144 766,335.84147863839144" stroke="#3b82f6"/>
  <polygon class="marker" points="880,300.32767146791036 874,312.32767146791036 886,312.32767146791036" stroke="#3b82f6"/>
  <polygon class="marker" points="1000,304.75620534498313 994,316.75620534498313 1006,316.75620534498313" stroke="#3b82f6"/>
  <polygon class="marker" points="1120,301.4311006573522 1114,313.4311006573522 1126,313.4311006573522" stroke="#3b82f6"/>
  <polygon class="marker" points="1240,306.95022806255736 1234,318.95022806255736 1246,318.95022806255736" stroke="#3b82f6"/>

  <!-- Legend -->
  <g transform="translate(100, 460)">
    <circle class="marker" cx="0" cy="0" r="6" stroke="#8b5cf6"/>
    <text class="label" x="15" y="4" font-size="13">bun/elysia</text>
    <circle class="marker" cx="150" cy="0" r="6" stroke="#f59e0b"/>
    <text class="label" x="165" y="4" font-size="13">bun/hono</text>
    <circle class="marker" cx="300" cy="0" r="6" stroke="#3b82f6"/>
    <text class="label" x="315" y="4" font-size="13">bun/kori</text>
    <rect class="marker" x="-6" y="14" width="12" height="12" stroke="#3b82f6"/>
    <text class="label" x="15" y="24" font-size="13">deno/kori</text>
    <rect class="marker" x="144" y="14" width="12" height="12" stroke="#f59e0b"/>
    <text class="label" x="165" y="24" font-size="13">deno/hono</text>
    <polygon class="marker" points="0,33 -6,45 6,45" stroke="#10b981"/>
    <text class="label" x="15" y="44" font-size="13">node/fastify</text>
    <polygon class="marker" points="150,33 144,45 156,45" stroke="#f59e0b"/>
    <text class="label" x="165" y="44" font-size="13">node/hono</text>
    <polygon class="marker" points="300,33 294,45 306,45" stroke="#3b82f6"/>
    <text class="label" x="315" y="44" font-size="13">node/kori</text>
  </g>
</svg>