<svg width="1400" height="540" xmlns="http://www.w3.org/2000/svg">
  <defs>
    <style>
      .chart-bg { fill: #2d2d2d; }
      .stripe { fill: rgba(255,255,255,0.03); }
      .grid-line { stroke: rgba(255,255,255,0.1); stroke-width: 1; }
      .axis-line { stroke: rgba(255,255,255,0.3); stroke-width: 2; }
      .label { fill: #b0b0b0; font-family: -apple-system, BlinkMacSystemFont, "Segoe UI", Roboto, sans-serif; font-size: 14px; }
      .title { fill: #ffffff; font-family: -apple-system, BlinkMacSystemFont, "Segoe UI", Roboto, sans-serif; font-size: 16px; font-weight: normal; }
      .line-elysia { stroke: #8b5cf6; fill: none; stroke-width: 2; }
      .line-kori { stroke: #3b82f6; fill: none; stroke-width: 2; }
      .line-hono { stroke: #f59e0b; fill: none; stroke-width: 2; }
      .line-fastify { stroke: #10b981; fill: none; stroke-width: 2; }
      .line-express { stroke: #ec4899; fill: none; stroke-width: 2; }
      .marker { fill: #2d2d2d; stroke-width: 2; }
    </style>
  </defs>

  <rect class="chart-bg" width="1400" height="540"/>

  <!-- Alternating stripes -->
  <rect class="stripe" x="220" y="60" width="120" height="340"/>
  <rect class="stripe" x="460" y="60" width="120" height="340"/>
  <rect class="stripe" x="700" y="60" width="120" height="340"/>
  <rect class="stripe" x="940" y="60" width="120" height="340"/>
  <rect class="stripe" x="1180" y="60" width="120" height="340"/>

  <!-- Grid lines -->
  <line class="grid-line" x1="100" y1="400" x2="1300" y2="400"/>
  <line class="grid-line" x1="100" y1="332" x2="1300" y2="332"/>
  <line class="grid-line" x1="100" y1="264" x2="1300" y2="264"/>
  <line class="grid-line" x1="100" y1="196" x2="1300" y2="196"/>
  <line class="grid-line" x1="100" y1="128" x2="1300" y2="128"/>
  <line class="grid-line" x1="100" y1="60" x2="1300" y2="60"/>

  <!-- Axes -->
  <line class="axis-line" x1="100" y1="60" x2="100" y2="400"/>
  <line class="axis-line" x1="100" y1="400" x2="1300" y2="400"/>

  <!-- Y-axis labels -->
  <text class="label" x="90" y="405" text-anchor="end">0%</text>
  <text class="label" x="90" y="337" text-anchor="end">20%</text>
  <text class="label" x="90" y="269" text-anchor="end">40%</text>
  <text class="label" x="90" y="201" text-anchor="end">60%</text>
  <text class="label" x="90" y="133" text-anchor="end">80%</text>
  <text class="label" x="90" y="65" text-anchor="end">100%</text>

  <!-- Y-axis title -->
  <text class="title" x="20" y="230" text-anchor="middle" transform="rotate(-90, 20, 230)">Relative Performance (%)</text>

  <!-- X-axis labels -->
  <text class="label" x="160" y="425" text-anchor="middle">①</text>
  <text class="label" x="280" y="425" text-anchor="middle">②</text>
  <text class="label" x="400" y="425" text-anchor="middle">③</text>
  <text class="label" x="520" y="425" text-anchor="middle">④</text>
  <text class="label" x="640" y="425" text-anchor="middle">⑤</text>
  <text class="label" x="760" y="425" text-anchor="middle">⑥</text>
  <text class="label" x="880" y="425" text-anchor="middle">⑦</text>
  <text class="label" x="1000" y="425" text-anchor="middle">⑧</text>
  <text class="label" x="1120" y="425" text-anchor="middle">⑨</text>
  <text class="label" x="1240" y="425" text-anchor="middle">⑩</text>

  <!-- bun/elysia -->
  <polyline class="line-elysia" points="160,60 280,60 400,60 520,60 640,60 760,60 880,60 1000,60 1120,60 1240,60"/>
  <circle class="marker" cx="160" cy="60" r="6" stroke="#8b5cf6"/>
  <circle class="marker" cx="280" cy="60" r="6" stroke="#8b5cf6"/>
  <circle class="marker" cx="400" cy="60" r="6" stroke="#8b5cf6"/>
  <circle class="marker" cx="520" cy="60" r="6" stroke="#8b5cf6"/>
  <circle class="marker" cx="640" cy="60" r="6" stroke="#8b5cf6"/>
  <circle class="marker" cx="760" cy="60" r="6" stroke="#8b5cf6"/>
  <circle class="marker" cx="880" cy="60" r="6" stroke="#8b5cf6"/>
  <circle class="marker" cx="1000" cy="60" r="6" stroke="#8b5cf6"/>
  <circle class="marker" cx="1120" cy="60" r="6" stroke="#8b5cf6"/>
  <circle class="marker" cx="1240" cy="60" r="6" stroke="#8b5cf6"/>

  <!-- deno/kori -->
  <polyline class="line-kori" points="160,233.18888934099658 280,81.42954089714567 400,88.02814573435626 520,188.4569602169264 640,149.66346496291462 760,132.717250135671 880,91.72535213661223 1000,81.69621411573769 1120,170.788589901004 1240,78.74639984295999"/>
  <rect class="marker" x="154" y="227.18888934099658" width="12" height="12" stroke="#3b82f6"/>
  <rect class="marker" x="274" y="75.42954089714567" width="12" height="12" stroke="#3b82f6"/>
  <rect class="marker" x="394" y="82.02814573435626" width="12" height="12" stroke="#3b82f6"/>
  <rect class="marker" x="514" y="182.4569602169264" width="12" height="12" stroke="#3b82f6"/>
  <rect class="marker" x="634" y="143.66346496291462" width="12" height="12" stroke="#3b82f6"/>
  <rect class="marker" x="754" y="126.71725013567101" width="12" height="12" stroke="#3b82f6"/>
  <rect class="marker" x="874" y="85.72535213661223" width="12" height="12" stroke="#3b82f6"/>
  <rect class="marker" x="994" y="75.69621411573769" width="12" height="12" stroke="#3b82f6"/>
  <rect class="marker" x="1114" y="164.788589901004" width="12" height="12" stroke="#3b82f6"/>
  <rect class="marker" x="1234" y="72.74639984295999" width="12" height="12" stroke="#3b82f6"/>

  <!-- deno/hono -->
  <polyline class="line-hono" points="160,244.50885925441867 280,111.19989581376882 400,88.07720941562621 520,186.5679084506018 640,169.47011517104792 760,128.5391602951928 880,101.39337817521266 1000,63.22732560518256 1120,166.25167830955286 1240,69.16847425550094"/>
  <rect class="marker" x="154" y="238.50885925441867" width="12" height="12" stroke="#f59e0b"/>
  <rect class="marker" x="274" y="105.19989581376882" width="12" height="12" stroke="#f59e0b"/>
  <rect class="marker" x="394" y="82.07720941562621" width="12" height="12" stroke="#f59e0b"/>
  <rect class="marker" x="514" y="180.5679084506018" width="12" height="12" stroke="#f59e0b"/>
  <rect class="marker" x="634" y="163.47011517104792" width="12" height="12" stroke="#f59e0b"/>
  <rect class="marker" x="754" y="122.5391602951928" width="12" height="12" stroke="#f59e0b"/>
  <rect class="marker" x="874" y="95.39337817521266" width="12" height="12" stroke="#f59e0b"/>
  <rect class="marker" x="994" y="57.22732560518256" width="12" height="12" stroke="#f59e0b"/>
  <rect class="marker" x="1114" y="160.25167830955286" width="12" height="12" stroke="#f59e0b"/>
  <rect class="marker" x="1234" y="63.16847425550094" width="12" height="12" stroke="#f59e0b"/>

  <!-- bun/hono -->
  <polyline class="line-hono" points="160,218.29348853748903 280,192.19886863270503 400,115.58813525833705 520,146.14279298246072 640,225.24019694153986 760,206.27142956265408 880,180.4049637269224 1000,138.93143287221244 1120,142.9389544926018 1240,128.0572895174384"/>
  <circle class="marker" cx="160" cy="218.29348853748903" r="6" stroke="#f59e0b"/>
  <circle class="marker" cx="280" cy="192.19886863270503" r="6" stroke="#f59e0b"/>
  <circle class="marker" cx="400" cy="115.58813525833705" r="6" stroke="#f59e0b"/>
  <circle class="marker" cx="520" cy="146.14279298246072" r="6" stroke="#f59e0b"/>
  <circle class="marker" cx="640" cy="225.24019694153986" r="6" stroke="#f59e0b"/>
  <circle class="marker" cx="760" cy="206.27142956265408" r="6" stroke="#f59e0b"/>
  <circle class="marker" cx="880" cy="180.4049637269224" r="6" stroke="#f59e0b"/>
  <circle class="marker" cx="1000" cy="138.93143287221244" r="6" stroke="#f59e0b"/>
  <circle class="marker" cx="1120" cy="142.9389544926018" r="6" stroke="#f59e0b"/>
  <circle class="marker" cx="1240" cy="128.0572895174384" r="6" stroke="#f59e0b"/>

  <!-- bun/kori -->
  <polyline class="line-kori" points="160,226.19384359160617 280,192.38365828671195 400,167.78307028986822 520,177.19786094475563 640,234.62693771345002 760,217.66762551596983 880,194.51507475296026 1000,165.73898411817984 1120,173.2387600639355 1240,168.8585830510551"/>
  <circle class="marker" cx="160" cy="226.19384359160617" r="6" stroke="#3b82f6"/>
  <circle class="marker" cx="280" cy="192.38365828671195" r="6" stroke="#3b82f6"/>
  <circle class="marker" cx="400" cy="167.78307028986822" r="6" stroke="#3b82f6"/>
  <circle class="marker" cx="520" cy="177.19786094475563" r="6" stroke="#3b82f6"/>
  <circle class="marker" cx="640" cy="234.62693771345002" r="6" stroke="#3b82f6"/>
  <circle class="marker" cx="760" cy="217.66762551596983" r="6" stroke="#3b82f6"/>
  <circle class="marker" cx="880" cy="194.51507475296026" r="6" stroke="#3b82f6"/>
  <circle class="marker" cx="1000" cy="165.73898411817984" r="6" stroke="#3b82f6"/>
  <circle class="marker" cx="1120" cy="173.2387600639355" r="6" stroke="#3b82f6"/>
  <circle class="marker" cx="1240" cy="168.8585830510551" r="6" stroke="#3b82f6"/>

  <!-- node/fastify -->
  <polyline class="line-fastify" points="160,242.44930266465823 280,208.89519901274517 400,206.30488340830237 520,207.1741234013938 640,253.4178155183692 760,246.03075667219528 880,224.5850997021038 1000,221.77842509071579 1120,209.70012414550925 1240,214.9856812091553"/>
  <polygon class="marker" points="160,235.44930266465823 154,247.44930266465823 166,247.44930266465823" stroke="#10b981"/>
  <polygon class="marker" points="280,201.89519901274517 274,213.89519901274517 286,213.89519901274517" stroke="#10b981"/>
  <polygon class="marker" points="400,199.30488340830237 394,211.30488340830237 406,211.30488340830237" stroke="#10b981"/>
  <polygon class="marker" points="520,200.1741234013938 514,212.1741234013938 526,212.1741234013938" stroke="#10b981"/>
  <polygon class="marker" points="640,246.4178155183692 634,258.4178155183692 646,258.4178155183692" stroke="#10b981"/>
  <polygon class="marker" points="760,239.03075667219528 754,251.03075667219528 766,251.03075667219528" stroke="#10b981"/>
  <polygon class="marker" points="880,217.5850997021038 874,229.5850997021038 886,229.5850997021038" stroke="#10b981"/>
  <polygon class="marker" points="1000,214.77842509071579 994,226.77842509071579 1006,226.77842509071579" stroke="#10b981"/>
  <polygon class="marker" points="1120,202.70012414550925 1114,214.70012414550925 1126,214.70012414550925" stroke="#10b981"/>
  <polygon class="marker" points="1240,207.9856812091553 1234,219.9856812091553 1246,219.9856812091553" stroke="#10b981"/>

  <!-- node/hono -->
  <polyline class="line-hono" points="160,321.4595308026248 280,311.551398625059 400,309.05520020422773 520,316.4209242841996 640,342.97028410810134 760,319.34042772975556 880,311.85682448596936 1000,311.16665991585637 1120,316.83404511872476 1240,312.5719002106869"/>
  <polygon class="marker" points="160,314.4595308026248 154,326.4595308026248 166,326.4595308026248" stroke="#f59e0b"/>
  <polygon class="marker" points="280,304.551398625059 274,316.551398625059 286,316.551398625059" stroke="#f59e0b"/>
  <polygon class="marker" points="400,302.05520020422773 394,314.05520020422773 406,314.05520020422773" stroke="#f59e0b"/>
  <polygon class="marker" points="520,309.4209242841996 514,321.4209242841996 526,321.4209242841996" stroke="#f59e0b"/>
  <polygon class="marker" points="640,335.97028410810134 634,347.97028410810134 646,347.97028410810134" stroke="#f59e0b"/>
  <polygon class="marker" points="760,312.34042772975556 754,324.34042772975556 766,324.34042772975556" stroke="#f59e0b"/>
  <polygon class="marker" points="880,304.85682448596936 874,316.85682448596936 886,316.85682448596936" stroke="#f59e0b"/>
  <polygon class="marker" points="1000,304.16665991585637 994,316.16665991585637 1006,316.16665991585637" stroke="#f59e0b"/>
  <polygon class="marker" points="1120,309.83404511872476 1114,321.83404511872476 1126,321.83404511872476" stroke="#f59e0b"/>
  <polygon class="marker" points="1240,305.5719002106869 1234,317.5719002106869 1246,317.5719002106869" stroke="#f59e0b"/>

  <!-- node/kori -->
  <polyline class="line-kori" points="160,326.87519845573604 280,311.8190006390561 400,319.3416894889876 520,317.5194582196032 640,346.0924784546834 760,322.2932764474499 880,315.70016336855525 1000,317.6046175231987 1120,317.30478749604436 1240,323.4804081604253"/>
  <polygon class="marker" points="160,319.87519845573604 154,331.87519845573604 166,331.87519845573604" stroke="#3b82f6"/>
  <polygon class="marker" points="280,304.8190006390561 274,316.8190006390561 286,316.8190006390561" stroke="#3b82f6"/>
  <polygon class="marker" points="400,312.3416894889876 394,324.3416894889876 406,324.3416894889876" stroke="#3b82f6"/>
  <polygon class="marker" points="520,310.5194582196032 514,322.5194582196032 526,322.5194582196032" stroke="#3b82f6"/>
  <polygon class="marker" points="640,339.0924784546834 634,351.0924784546834 646,351.0924784546834" stroke="#3b82f6"/>
  <polygon class="marker" points="760,315.2932764474499 754,327.2932764474499 766,327.2932764474499" stroke="#3b82f6"/>
  <polygon class="marker" points="880,308.70016336855525 874,320.70016336855525 886,320.70016336855525" stroke="#3b82f6"/>
  <polygon class="marker" points="1000,310.6046175231987 994,322.6046175231987 1006,322.6046175231987" stroke="#3b82f6"/>
  <polygon class="marker" points="1120,310.30478749604436 1114,322.30478749604436 1126,322.30478749604436" stroke="#3b82f6"/>
  <polygon class="marker" points="1240,316.4804081604253 1234,328.4804081604253 1246,328.4804081604253" stroke="#3b82f6"/>

  <!-- Legend -->
  <g transform="translate(100, 460)">
    <circle class="marker" cx="0" cy="0" r="6" stroke="#8b5cf6"/>
    <text class="label" x="15" y="4" font-size="13">bun/elysia</text>
    <circle class="marker" cx="150" cy="0" r="6" stroke="#f59e0b"/>
    <text class="label" x="165" y="4" font-size="13">bun/hono</text>
    <circle class="marker" cx="300" cy="0" r="6" stroke="#3b82f6"/>
    <text class="label" x="315" y="4" font-size="13">bun/kori</text>
    <rect class="marker" x="-6" y="14" width="12" height="12" stroke="#3b82f6"/>
    <text class="label" x="15" y="24" font-size="13">deno/kori</text>
    <rect class="marker" x="144" y="14" width="12" height="12" stroke="#f59e0b"/>
    <text class="label" x="165" y="24" font-size="13">deno/hono</text>
    <polygon class="marker" points="0,33 -6,45 6,45" stroke="#10b981"/>
    <text class="label" x="15" y="44" font-size="13">node/fastify</text>
    <polygon class="marker" points="150,33 144,45 156,45" stroke="#f59e0b"/>
    <text class="label" x="165" y="44" font-size="13">node/hono</text>
    <polygon class="marker" points="300,33 294,45 306,45" stroke="#3b82f6"/>
    <text class="label" x="315" y="44" font-size="13">node/kori</text>
  </g>
</svg>