<svg width="1400" height="540" xmlns="http://www.w3.org/2000/svg">
  <defs>
    <style>
      .chart-bg { fill: #2d2d2d; }
      .stripe { fill: rgba(255,255,255,0.03); }
      .grid-line { stroke: rgba(255,255,255,0.1); stroke-width: 1; }
      .axis-line { stroke: rgba(255,255,255,0.3); stroke-width: 2; }
      .label { fill: #b0b0b0; font-family: -apple-system, BlinkMacSystemFont, "Segoe UI", Roboto, sans-serif; font-size: 14px; }
      .title { fill: #ffffff; font-family: -apple-system, BlinkMacSystemFont, "Segoe UI", Roboto, sans-serif; font-size: 16px; font-weight: normal; }
      .line-elysia { stroke: #8b5cf6; fill: none; stroke-width: 2; }
      .line-kori { stroke: #3b82f6; fill: none; stroke-width: 2; }
      .line-hono { stroke: #f59e0b; fill: none; stroke-width: 2; }
      .line-fastify { stroke: #10b981; fill: none; stroke-width: 2; }
      .line-express { stroke: #ec4899; fill: none; stroke-width: 2; }
      .marker { fill: #2d2d2d; stroke-width: 2; }
    </style>
  </defs>

  <rect class="chart-bg" width="1400" height="540"/>

  <!-- Alternating stripes -->
  <rect class="stripe" x="220" y="60" width="120" height="340"/>
  <rect class="stripe" x="460" y="60" width="120" height="340"/>
  <rect class="stripe" x="700" y="60" width="120" height="340"/>
  <rect class="stripe" x="940" y="60" width="120" height="340"/>
  <rect class="stripe" x="1180" y="60" width="120" height="340"/>

  <!-- Grid lines -->
  <line class="grid-line" x1="100" y1="400" x2="1300" y2="400"/>
  <line class="grid-line" x1="100" y1="332" x2="1300" y2="332"/>
  <line class="grid-line" x1="100" y1="264" x2="1300" y2="264"/>
  <line class="grid-line" x1="100" y1="196" x2="1300" y2="196"/>
  <line class="grid-line" x1="100" y1="128" x2="1300" y2="128"/>
  <line class="grid-line" x1="100" y1="60" x2="1300" y2="60"/>

  <!-- Axes -->
  <line class="axis-line" x1="100" y1="60" x2="100" y2="400"/>
  <line class="axis-line" x1="100" y1="400" x2="1300" y2="400"/>

  <!-- Y-axis labels -->
  <text class="label" x="90" y="405" text-anchor="end">0k</text>
  <text class="label" x="90" y="337" text-anchor="end">20k</text>
  <text class="label" x="90" y="269" text-anchor="end">40k</text>
  <text class="label" x="90" y="201" text-anchor="end">60k</text>
  <text class="label" x="90" y="133" text-anchor="end">80k</text>
  <text class="label" x="90" y="65" text-anchor="end">100k</text>

  <!-- Y-axis title -->
  <text class="title" x="20" y="230" text-anchor="middle" transform="rotate(-90, 20, 230)">Requests per Second</text>

  <!-- X-axis labels -->
  <text class="label" x="160" y="425" text-anchor="middle">①</text>
  <text class="label" x="280" y="425" text-anchor="middle">②</text>
  <text class="label" x="400" y="425" text-anchor="middle">③</text>
  <text class="label" x="520" y="425" text-anchor="middle">④</text>
  <text class="label" x="640" y="425" text-anchor="middle">⑤</text>
  <text class="label" x="760" y="425" text-anchor="middle">⑥</text>
  <text class="label" x="880" y="425" text-anchor="middle">⑦</text>
  <text class="label" x="1000" y="425" text-anchor="middle">⑧</text>
  <text class="label" x="1120" y="425" text-anchor="middle">⑨</text>
  <text class="label" x="1240" y="425" text-anchor="middle">⑩</text>

  <!-- bun/elysia -->
  <polyline class="line-elysia" points="160,187.04847932 280,238.23237138 400,281.52514428 520,286.4405049 640,180.94379733999997 760,175.13477698 880,229.63292852 1000,279.77632742000003 1120,301.28494026 1240,263.10155136000003"/>
  <circle class="marker" cx="160" cy="187.04847932" r="6" stroke="#8b5cf6"/>
  <circle class="marker" cx="280" cy="238.23237138" r="6" stroke="#8b5cf6"/>
  <circle class="marker" cx="400" cy="281.52514428" r="6" stroke="#8b5cf6"/>
  <circle class="marker" cx="520" cy="286.4405049" r="6" stroke="#8b5cf6"/>
  <circle class="marker" cx="640" cy="180.94379733999997" r="6" stroke="#8b5cf6"/>
  <circle class="marker" cx="760" cy="175.13477698" r="6" stroke="#8b5cf6"/>
  <circle class="marker" cx="880" cy="229.63292852" r="6" stroke="#8b5cf6"/>
  <circle class="marker" cx="1000" cy="279.77632742000003" r="6" stroke="#8b5cf6"/>
  <circle class="marker" cx="1120" cy="301.28494026" r="6" stroke="#8b5cf6"/>
  <circle class="marker" cx="1240" cy="263.10155136000003" r="6" stroke="#8b5cf6"/>

  <!-- deno/kori -->
  <polyline class="line-kori" points="160,294.32243148 280,263.91048581999996 400,302.72347346 520,327.46817808000003 640,270.77234984 760,253.50716853999998 880,253.8826608 1000,294.7828792 1120,321.22330186 1240,295.70532504"/>
  <rect class="marker" x="154" y="288.32243148" width="12" height="12" stroke="#3b82f6"/>
  <rect class="marker" x="274" y="257.91048581999996" width="12" height="12" stroke="#3b82f6"/>
  <rect class="marker" x="394" y="296.72347346" width="12" height="12" stroke="#3b82f6"/>
  <rect class="marker" x="514" y="321.46817808000003" width="12" height="12" stroke="#3b82f6"/>
  <rect class="marker" x="634" y="264.77234984" width="12" height="12" stroke="#3b82f6"/>
  <rect class="marker" x="754" y="247.50716853999998" width="12" height="12" stroke="#3b82f6"/>
  <rect class="marker" x="874" y="247.8826608" width="12" height="12" stroke="#3b82f6"/>
  <rect class="marker" x="994" y="288.7828792" width="12" height="12" stroke="#3b82f6"/>
  <rect class="marker" x="1114" y="315.22330186" width="12" height="12" stroke="#3b82f6"/>
  <rect class="marker" x="1234" y="289.70532504" width="12" height="12" stroke="#3b82f6"/>

  <!-- deno/hono -->
  <polyline class="line-hono" points="160,305.10599932 280,274.12320692000003 400,298.85659634 520,322.4599298 640,263.85193306 760,268.52944668 880,268.57784976 1000,298.27266708 1120,322.84187832 1240,298.28431616"/>
  <rect class="marker" x="154" y="299.10599932" width="12" height="12" stroke="#f59e0b"/>
  <rect class="marker" x="274" y="268.12320692000003" width="12" height="12" stroke="#f59e0b"/>
  <rect class="marker" x="394" y="292.85659634" width="12" height="12" stroke="#f59e0b"/>
  <rect class="marker" x="514" y="316.4599298" width="12" height="12" stroke="#f59e0b"/>
  <rect class="marker" x="634" y="257.85193306" width="12" height="12" stroke="#f59e0b"/>
  <rect class="marker" x="754" y="262.52944668" width="12" height="12" stroke="#f59e0b"/>
  <rect class="marker" x="874" y="262.57784976" width="12" height="12" stroke="#f59e0b"/>
  <rect class="marker" x="994" y="292.27266708" width="12" height="12" stroke="#f59e0b"/>
  <rect class="marker" x="1114" y="316.84187832" width="12" height="12" stroke="#f59e0b"/>
  <rect class="marker" x="1234" y="292.28431616" width="12" height="12" stroke="#f59e0b"/>

  <!-- bun/hono -->
  <polyline class="line-hono" points="160,284.55047992000004 280,289.76295872000003 400,321.79026954 520,326.40960644 640,291.91565104 760,302.28213884 880,287.482984 1000,304.34840078 1120,321.13113432 1240,303.80426750000004"/>
  <circle class="marker" cx="160" cy="284.55047992000004" r="6" stroke="#f59e0b"/>
  <circle class="marker" cx="280" cy="289.76295872000003" r="6" stroke="#f59e0b"/>
  <circle class="marker" cx="400" cy="321.79026954" r="6" stroke="#f59e0b"/>
  <circle class="marker" cx="520" cy="326.40960644" r="6" stroke="#f59e0b"/>
  <circle class="marker" cx="640" cy="291.91565104" r="6" stroke="#f59e0b"/>
  <circle class="marker" cx="760" cy="302.28213884" r="6" stroke="#f59e0b"/>
  <circle class="marker" cx="880" cy="287.482984" r="6" stroke="#f59e0b"/>
  <circle class="marker" cx="1000" cy="304.34840078" r="6" stroke="#f59e0b"/>
  <circle class="marker" cx="1120" cy="321.13113432" r="6" stroke="#f59e0b"/>
  <circle class="marker" cx="1240" cy="303.80426750000004" r="6" stroke="#f59e0b"/>

  <!-- bun/kori -->
  <polyline class="line-kori" points="160,293.4546658 280,294.83371056 400,322.47314424 520,328.5315308 640,290.99280978 760,284.25966228 880,291.46396852 1000,317.85312632 1120,330.68009756 1240,315.71866276000003"/>
  <circle class="marker" cx="160" cy="293.4546658" r="6" stroke="#3b82f6"/>
  <circle class="marker" cx="280" cy="294.83371056" r="6" stroke="#3b82f6"/>
  <circle class="marker" cx="400" cy="322.47314424" r="6" stroke="#3b82f6"/>
  <circle class="marker" cx="520" cy="328.5315308" r="6" stroke="#3b82f6"/>
  <circle class="marker" cx="640" cy="290.99280978" r="6" stroke="#3b82f6"/>
  <circle class="marker" cx="760" cy="284.25966228" r="6" stroke="#3b82f6"/>
  <circle class="marker" cx="880" cy="291.46396852" r="6" stroke="#3b82f6"/>
  <circle class="marker" cx="1000" cy="317.85312632" r="6" stroke="#3b82f6"/>
  <circle class="marker" cx="1120" cy="330.68009756" r="6" stroke="#3b82f6"/>
  <circle class="marker" cx="1240" cy="315.71866276000003" r="6" stroke="#3b82f6"/>

  <!-- node/fastify -->
  <polyline class="line-fastify" points="160,341.57938304 280,350.78002138 400,362.23478253999997 520,363.4047086 640,339.77161664 760,337.15306108 880,341.96465574 1000,361.20565422 1120,361.36829492 1240,359.80877986"/>
  <polygon class="marker" points="160,334.57938304 154,346.57938304 166,346.57938304" stroke="#10b981"/>
  <polygon class="marker" points="280,343.78002138 274,355.78002138 286,355.78002138" stroke="#10b981"/>
  <polygon class="marker" points="400,355.23478253999997 394,367.23478253999997 406,367.23478253999997" stroke="#10b981"/>
  <polygon class="marker" points="520,356.4047086 514,368.4047086 526,368.4047086" stroke="#10b981"/>
  <polygon class="marker" points="640,332.77161664 634,344.77161664 646,344.77161664" stroke="#10b981"/>
  <polygon class="marker" points="760,330.15306108 754,342.15306108 766,342.15306108" stroke="#10b981"/>
  <polygon class="marker" points="880,334.96465574 874,346.96465574 886,346.96465574" stroke="#10b981"/>
  <polygon class="marker" points="1000,354.20565422 994,366.20565422 1006,366.20565422" stroke="#10b981"/>
  <polygon class="marker" points="1120,354.36829492 1114,366.36829492 1126,366.36829492" stroke="#10b981"/>
  <polygon class="marker" points="1240,352.80877986 1234,364.80877986 1246,364.80877986" stroke="#10b981"/>

  <!-- node/hono -->
  <polyline class="line-hono" points="160,348.42354224 280,352.28920488 400,376.38889516 520,376.2962353 640,350.69099986000003 760,349.04757722 880,351.36965685999996 1000,374.65913394 1120,376.00247156 1240,374.25985324"/>
  <polygon class="marker" points="160,341.42354224 154,353.42354224 166,353.42354224" stroke="#f59e0b"/>
  <polygon class="marker" points="280,345.28920488 274,357.28920488 286,357.28920488" stroke="#f59e0b"/>
  <polygon class="marker" points="400,369.38889516 394,381.38889516 406,381.38889516" stroke="#f59e0b"/>
  <polygon class="marker" points="520,369.2962353 514,381.2962353 526,381.2962353" stroke="#f59e0b"/>
  <polygon class="marker" points="640,343.69099986000003 634,355.69099986000003 646,355.69099986000003" stroke="#f59e0b"/>
  <polygon class="marker" points="760,342.04757722 754,354.04757722 766,354.04757722" stroke="#f59e0b"/>
  <polygon class="marker" points="880,344.36965685999996 874,356.36965685999996 886,356.36965685999996" stroke="#f59e0b"/>
  <polygon class="marker" points="1000,367.65913394 994,379.65913394 1006,379.65913394" stroke="#f59e0b"/>
  <polygon class="marker" points="1120,369.00247156 1114,381.00247156 1126,381.00247156" stroke="#f59e0b"/>
  <polygon class="marker" points="1240,367.25985324 1234,379.25985324 1246,379.25985324" stroke="#f59e0b"/>

  <!-- node/kori -->
  <polyline class="line-kori" points="160,362.9014984 280,361.7035628 400,376.39971804 520,376.09001714 640,367.23076702 760,360.64795222 880,360.43707062 1000,374.19091926 1120,376.23497138 1240,373.33551462"/>
  <polygon class="marker" points="160,355.9014984 154,367.9014984 166,367.9014984" stroke="#3b82f6"/>
  <polygon class="marker" points="280,354.7035628 274,366.7035628 286,366.7035628" stroke="#3b82f6"/>
  <polygon class="marker" points="400,369.39971804 394,381.39971804 406,381.39971804" stroke="#3b82f6"/>
  <polygon class="marker" points="520,369.09001714 514,381.09001714 526,381.09001714" stroke="#3b82f6"/>
  <polygon class="marker" points="640,360.23076702 634,372.23076702 646,372.23076702" stroke="#3b82f6"/>
  <polygon class="marker" points="760,353.64795222 754,365.64795222 766,365.64795222" stroke="#3b82f6"/>
  <polygon class="marker" points="880,353.43707062 874,365.43707062 886,365.43707062" stroke="#3b82f6"/>
  <polygon class="marker" points="1000,367.19091926 994,379.19091926 1006,379.19091926" stroke="#3b82f6"/>
  <polygon class="marker" points="1120,369.23497138 1114,381.23497138 1126,381.23497138" stroke="#3b82f6"/>
  <polygon class="marker" points="1240,366.33551462 1234,378.33551462 1246,378.33551462" stroke="#3b82f6"/>

  <!-- Legend -->
  <g transform="translate(100, 460)">
    <circle class="marker" cx="0" cy="0" r="6" stroke="#8b5cf6"/>
    <text class="label" x="15" y="4" font-size="13">bun/elysia</text>
    <circle class="marker" cx="150" cy="0" r="6" stroke="#f59e0b"/>
    <text class="label" x="165" y="4" font-size="13">bun/hono</text>
    <circle class="marker" cx="300" cy="0" r="6" stroke="#3b82f6"/>
    <text class="label" x="315" y="4" font-size="13">bun/kori</text>
    <rect class="marker" x="-6" y="14" width="12" height="12" stroke="#3b82f6"/>
    <text class="label" x="15" y="24" font-size="13">deno/kori</text>
    <rect class="marker" x="144" y="14" width="12" height="12" stroke="#f59e0b"/>
    <text class="label" x="165" y="24" font-size="13">deno/hono</text>
    <polygon class="marker" points="0,33 -6,45 6,45" stroke="#10b981"/>
    <text class="label" x="15" y="44" font-size="13">node/fastify</text>
    <polygon class="marker" points="150,33 144,45 156,45" stroke="#f59e0b"/>
    <text class="label" x="165" y="44" font-size="13">node/hono</text>
    <polygon class="marker" points="300,33 294,45 306,45" stroke="#3b82f6"/>
    <text class="label" x="315" y="44" font-size="13">node/kori</text>
  </g>
</svg>