<svg width="1000" height="540" xmlns="http://www.w3.org/2000/svg">
  <defs>
    <style>
      .chart-bg { fill: #2d2d2d; }
      .stripe { fill: rgba(255,255,255,0.03); }
      .grid-line { stroke: rgba(255,255,255,0.1); stroke-width: 1; }
      .axis-line { stroke: rgba(255,255,255,0.3); stroke-width: 2; }
      .label { fill: #b0b0b0; font-family: -apple-system, BlinkMacSystemFont, "Segoe UI", Roboto, sans-serif; font-size: 16px; }
      .title { fill: #ffffff; font-family: -apple-system, BlinkMacSystemFont, "Segoe UI", Roboto, sans-serif; font-size: 16px; font-weight: normal; }
      .line-elysia { stroke: #8b5cf6; fill: none; stroke-width: 2; }
      .line-kori { stroke: #3b82f6; fill: none; stroke-width: 2; }
      .line-hono { stroke: #f59e0b; fill: none; stroke-width: 2; }
      .line-fastify { stroke: #10b981; fill: none; stroke-width: 2; }
      .line-express { stroke: #ec4899; fill: none; stroke-width: 2; }
      .marker { fill: #2d2d2d; stroke-width: 2; }
    </style>
  </defs>

  <rect class="chart-bg" width="1000" height="540"/>

  <!-- Alternating stripes -->
  <rect class="stripe" x="200" y="60" width="120" height="340"/>
  <rect class="stripe" x="440" y="60" width="120" height="340"/>
  <rect class="stripe" x="680" y="60" width="120" height="340"/>

  <!-- Grid lines -->
  <line class="grid-line" x1="80" y1="400" x2="920" y2="400"/>
  <line class="grid-line" x1="80" y1="332" x2="920" y2="332"/>
  <line class="grid-line" x1="80" y1="264" x2="920" y2="264"/>
  <line class="grid-line" x1="80" y1="196" x2="920" y2="196"/>
  <line class="grid-line" x1="80" y1="128" x2="920" y2="128"/>
  <line class="grid-line" x1="80" y1="60" x2="920" y2="60"/>

  <!-- Axes -->
  <line class="axis-line" x1="80" y1="60" x2="80" y2="400"/>
  <line class="axis-line" x1="80" y1="400" x2="920" y2="400"/>

  <!-- Y-axis labels -->
  <text class="label" x="70" y="405" text-anchor="end">0k</text>
  <text class="label" x="70" y="337" text-anchor="end">30k</text>
  <text class="label" x="70" y="269" text-anchor="end">60k</text>
  <text class="label" x="70" y="201" text-anchor="end">90k</text>
  <text class="label" x="70" y="133" text-anchor="end">120k</text>
  <text class="label" x="70" y="65" text-anchor="end">150k</text>

  <!-- Y-axis title -->
  <text class="title" x="20" y="230" text-anchor="middle" transform="rotate(-90, 20, 230)">Requests per Second</text>

  <!-- X-axis labels -->
  <text class="label" x="140" y="425" text-anchor="middle">ping</text>
  <text class="label" x="260" y="425" text-anchor="middle">query</text>
  <text class="label" x="380" y="425" text-anchor="middle">body</text>
  <text class="label" x="500" y="425" text-anchor="middle">zod</text>
  <text class="label" x="620" y="425" text-anchor="middle">valibot</text>
  <text class="label" x="740" y="425" text-anchor="middle">arktype</text>
  <text class="label" x="860" y="425" text-anchor="middle">elysia-t</text>

  <!-- bun/elysia -->
  <polyline class="line-elysia" points="140,141.99987513333338 260,261.91548878666663 380,307.24552684 500,322.34383317333334 620,319.9812812933333 740,322.5972208933333 860,328.3845340666667"/>
  <circle class="marker" cx="140" cy="141.99987513333338" r="7" stroke="#8b5cf6"/>
  <circle class="marker" cx="260" cy="261.91548878666663" r="7" stroke="#8b5cf6"/>
  <circle class="marker" cx="380" cy="307.24552684" r="7" stroke="#8b5cf6"/>
  <circle class="marker" cx="500" cy="322.34383317333334" r="7" stroke="#8b5cf6"/>
  <circle class="marker" cx="620" cy="319.9812812933333" r="7" stroke="#8b5cf6"/>
  <circle class="marker" cx="740" cy="322.5972208933333" r="7" stroke="#8b5cf6"/>
  <circle class="marker" cx="860" cy="328.3845340666667" r="7" stroke="#8b5cf6"/>

  <!-- deno/hono -->
  <polyline class="line-hono" points="140,250.97418270666668 260,303.0859876933333 380,329.3666691733333 500,332.00064736 620,335.4311338 740,338.6595251466667"/>
  <rect class="marker" x="133" y="243.97418270666668" width="14" height="14" stroke="#f59e0b"/>
  <rect class="marker" x="253" y="296.0859876933333" width="14" height="14" stroke="#f59e0b"/>
  <rect class="marker" x="373" y="322.3666691733333" width="14" height="14" stroke="#f59e0b"/>
  <rect class="marker" x="493" y="325.00064736" width="14" height="14" stroke="#f59e0b"/>
  <rect class="marker" x="613" y="328.4311338" width="14" height="14" stroke="#f59e0b"/>
  <rect class="marker" x="733" y="331.6595251466667" width="14" height="14" stroke="#f59e0b"/>

  <!-- bun/hono -->
  <polyline class="line-hono" points="140,259.93901801333334 260,286.47453992 380,303.76725544 500,338.00291782666665 620,342.6043552 740,336.27650141333334"/>
  <circle class="marker" cx="140" cy="259.93901801333334" r="7" stroke="#f59e0b"/>
  <circle class="marker" cx="260" cy="286.47453992" r="7" stroke="#f59e0b"/>
  <circle class="marker" cx="380" cy="303.76725544" r="7" stroke="#f59e0b"/>
  <circle class="marker" cx="500" cy="338.00291782666665" r="7" stroke="#f59e0b"/>
  <circle class="marker" cx="620" cy="342.6043552" r="7" stroke="#f59e0b"/>
  <circle class="marker" cx="740" cy="336.27650141333334" r="7" stroke="#f59e0b"/>

  <!-- bun/kori -->
  <polyline class="line-kori" points="140,268.03987728 260,284.97318424 380,287.58760313333335 500,347.2925075333333 620,347.4878076133333 740,344.15742578666664"/>
  <circle class="marker" cx="140" cy="268.03987728" r="7" stroke="#3b82f6"/>
  <circle class="marker" cx="260" cy="284.97318424" r="7" stroke="#3b82f6"/>
  <circle class="marker" cx="380" cy="287.58760313333335" r="7" stroke="#3b82f6"/>
  <circle class="marker" cx="500" cy="347.2925075333333" r="7" stroke="#3b82f6"/>
  <circle class="marker" cx="620" cy="347.4878076133333" r="7" stroke="#3b82f6"/>
  <circle class="marker" cx="740" cy="344.15742578666664" r="7" stroke="#3b82f6"/>

  <!-- deno/kori -->
  <polyline class="line-kori" points="140,277.36141066666664 260,269.3900834666666 380,317.65237150666667 500,334.30067505333335 620,334.86064168 740,334.37245766666666"/>
  <rect class="marker" x="133" y="270.36141066666664" width="14" height="14" stroke="#3b82f6"/>
  <rect class="marker" x="253" y="262.3900834666666" width="14" height="14" stroke="#3b82f6"/>
  <rect class="marker" x="373" y="310.65237150666667" width="14" height="14" stroke="#3b82f6"/>
  <rect class="marker" x="493" y="327.30067505333335" width="14" height="14" stroke="#3b82f6"/>
  <rect class="marker" x="613" y="327.86064168" width="14" height="14" stroke="#3b82f6"/>
  <rect class="marker" x="733" y="327.37245766666666" width="14" height="14" stroke="#3b82f6"/>

  <!-- node/fastify -->
  <polyline class="line-fastify" points="140,347.49778933333334 260,346.53371049333333 380,370.6197681333333"/>
  <polygon class="marker" points="140,339.49778933333334 133,353.49778933333334 147,353.49778933333334" stroke="#10b981"/>
  <polygon class="marker" points="260,338.53371049333333 253,352.53371049333333 267,352.53371049333333" stroke="#10b981"/>
  <polygon class="marker" points="380,362.6197681333333 373,376.6197681333333 387,376.6197681333333" stroke="#10b981"/>

  <!-- node/kori -->
  <polyline class="line-kori" points="140,351.1382609066667 260,360.23815441333335 380,379.8154478 500,381.91428298666665 620,382.32546652 740,381.7427287333333"/>
  <polygon class="marker" points="140,343.1382609066667 133,357.1382609066667 147,357.1382609066667" stroke="#3b82f6"/>
  <polygon class="marker" points="260,352.23815441333335 253,366.23815441333335 267,366.23815441333335" stroke="#3b82f6"/>
  <polygon class="marker" points="380,371.8154478 373,385.8154478 387,385.8154478" stroke="#3b82f6"/>
  <polygon class="marker" points="500,373.91428298666665 493,387.91428298666665 507,387.91428298666665" stroke="#3b82f6"/>
  <polygon class="marker" points="620,374.32546652 613,388.32546652 627,388.32546652" stroke="#3b82f6"/>
  <polygon class="marker" points="740,373.7427287333333 733,387.7427287333333 747,387.7427287333333" stroke="#3b82f6"/>

  <!-- node/hono -->
  <polyline class="line-hono" points="140,352.75316389333335 260,355.47062432 380,381.77939410666664 500,383.35444161333334 620,382.89503497333334 740,382.79975767999997"/>
  <polygon class="marker" points="140,344.75316389333335 133,358.75316389333335 147,358.75316389333335" stroke="#f59e0b"/>
  <polygon class="marker" points="260,347.47062432 253,361.47062432 267,361.47062432" stroke="#f59e0b"/>
  <polygon class="marker" points="380,373.77939410666664 373,387.77939410666664 387,387.77939410666664" stroke="#f59e0b"/>
  <polygon class="marker" points="500,375.35444161333334 493,389.35444161333334 507,389.35444161333334" stroke="#f59e0b"/>
  <polygon class="marker" points="620,374.89503497333334 613,388.89503497333334 627,388.89503497333334" stroke="#f59e0b"/>
  <polygon class="marker" points="740,374.79975767999997 733,388.79975767999997 747,388.79975767999997" stroke="#f59e0b"/>

  <!-- node/express -->
  <polyline class="line-express" points="140,382.68500405333333 260,384.2860094266667 380,388.7636163066667"/>
  <polygon class="marker" points="140,374.68500405333333 133,388.68500405333333 147,388.68500405333333" stroke="#ec4899"/>
  <polygon class="marker" points="260,376.2860094266667 253,390.2860094266667 267,390.2860094266667" stroke="#ec4899"/>
  <polygon class="marker" points="380,380.7636163066667 373,394.7636163066667 387,394.7636163066667" stroke="#ec4899"/>

  <!-- Legend -->
  <g transform="translate(100, 460)">
    <circle class="marker" cx="0" cy="0" r="7" stroke="#8b5cf6"/>
    <text class="label" x="15" y="5" font-size="14">bun/elysia</text>
    <circle class="marker" cx="150" cy="0" r="7" stroke="#f59e0b"/>
    <text class="label" x="165" y="5" font-size="14">bun/hono</text>
    <circle class="marker" cx="300" cy="0" r="7" stroke="#3b82f6"/>
    <text class="label" x="315" y="5" font-size="14">bun/kori</text>
    <rect class="marker" x="-7" y="13" width="14" height="14" stroke="#f59e0b"/>
    <text class="label" x="15" y="25" font-size="14">deno/hono</text>
    <rect class="marker" x="143" y="13" width="14" height="14" stroke="#3b82f6"/>
    <text class="label" x="165" y="25" font-size="14">deno/kori</text>
    <polygon class="marker" points="0,32 -7,46 7,46" stroke="#10b981"/>
    <text class="label" x="15" y="45" font-size="14">node/fastify</text>
    <polygon class="marker" points="150,32 143,46 157,46" stroke="#3b82f6"/>
    <text class="label" x="165" y="45" font-size="14">node/kori</text>
    <polygon class="marker" points="300,32 293,46 307,46" stroke="#f59e0b"/>
    <text class="label" x="315" y="45" font-size="14">node/hono</text>
    <polygon class="marker" points="450,32 443,46 457,46" stroke="#ec4899"/>
    <text class="label" x="465" y="45" font-size="14">node/express</text>
  </g>
</svg>