<svg width="1000" height="540" xmlns="http://www.w3.org/2000/svg">
  <defs>
    <style>
      .chart-bg { fill: #2d2d2d; }
      .stripe { fill: rgba(255,255,255,0.03); }
      .grid-line { stroke: rgba(255,255,255,0.1); stroke-width: 1; }
      .axis-line { stroke: rgba(255,255,255,0.3); stroke-width: 2; }
      .label { fill: #b0b0b0; font-family: -apple-system, BlinkMacSystemFont, "Segoe UI", Roboto, sans-serif; font-size: 16px; }
      .title { fill: #ffffff; font-family: -apple-system, BlinkMacSystemFont, "Segoe UI", Roboto, sans-serif; font-size: 16px; font-weight: normal; }
      .line-elysia { stroke: #8b5cf6; fill: none; stroke-width: 2; }
      .line-kori { stroke: #3b82f6; fill: none; stroke-width: 2; }
      .line-hono { stroke: #f59e0b; fill: none; stroke-width: 2; }
      .line-fastify { stroke: #10b981; fill: none; stroke-width: 2; }
      .line-express { stroke: #ec4899; fill: none; stroke-width: 2; }
      .marker { fill: #2d2d2d; stroke-width: 2; }
    </style>
  </defs>

  <rect class="chart-bg" width="1000" height="540"/>

  <!-- Alternating stripes -->
  <rect class="stripe" x="200" y="60" width="120" height="340"/>
  <rect class="stripe" x="440" y="60" width="120" height="340"/>
  <rect class="stripe" x="680" y="60" width="120" height="340"/>

  <!-- Grid lines -->
  <line class="grid-line" x1="80" y1="400" x2="920" y2="400"/>
  <line class="grid-line" x1="80" y1="332" x2="920" y2="332"/>
  <line class="grid-line" x1="80" y1="264" x2="920" y2="264"/>
  <line class="grid-line" x1="80" y1="196" x2="920" y2="196"/>
  <line class="grid-line" x1="80" y1="128" x2="920" y2="128"/>
  <line class="grid-line" x1="80" y1="60" x2="920" y2="60"/>

  <!-- Axes -->
  <line class="axis-line" x1="80" y1="60" x2="80" y2="400"/>
  <line class="axis-line" x1="80" y1="400" x2="920" y2="400"/>

  <!-- Y-axis labels -->
  <text class="label" x="70" y="405" text-anchor="end">0k</text>
  <text class="label" x="70" y="337" text-anchor="end">30k</text>
  <text class="label" x="70" y="269" text-anchor="end">60k</text>
  <text class="label" x="70" y="201" text-anchor="end">90k</text>
  <text class="label" x="70" y="133" text-anchor="end">120k</text>
  <text class="label" x="70" y="65" text-anchor="end">150k</text>

  <!-- Y-axis title -->
  <text class="title" x="20" y="230" text-anchor="middle" transform="rotate(-90, 20, 230)">Requests per Second</text>

  <!-- X-axis labels -->
  <text class="label" x="140" y="425" text-anchor="middle">ping</text>
  <text class="label" x="260" y="425" text-anchor="middle">query</text>
  <text class="label" x="380" y="425" text-anchor="middle">body</text>
  <text class="label" x="500" y="425" text-anchor="middle">zod</text>
  <text class="label" x="620" y="425" text-anchor="middle">valibot</text>
  <text class="label" x="740" y="425" text-anchor="middle">arktype</text>
  <text class="label" x="860" y="425" text-anchor="middle">elysia-t</text>

  <!-- bun/elysia -->
  <polyline class="line-elysia" points="140,113.13047966666664 260,249.98038537333335 380,284.66553274666666 500,319.4150072133333 620,315.5182835333333 740,315.00815932 860,327.05158537333335"/>
  <circle class="marker" cx="140" cy="113.13047966666664" r="7" stroke="#8b5cf6"/>
  <circle class="marker" cx="260" cy="249.98038537333335" r="7" stroke="#8b5cf6"/>
  <circle class="marker" cx="380" cy="284.66553274666666" r="7" stroke="#8b5cf6"/>
  <circle class="marker" cx="500" cy="319.4150072133333" r="7" stroke="#8b5cf6"/>
  <circle class="marker" cx="620" cy="315.5182835333333" r="7" stroke="#8b5cf6"/>
  <circle class="marker" cx="740" cy="315.00815932" r="7" stroke="#8b5cf6"/>
  <circle class="marker" cx="860" cy="327.05158537333335" r="7" stroke="#8b5cf6"/>

  <!-- bun/hono -->
  <polyline class="line-hono" points="140,237.46587572 260,279.9982217333333 380,305.90594927999996 500,338.16034530666667 620,332.61837976000004 740,334.28918781333334"/>
  <circle class="marker" cx="140" cy="237.46587572" r="7" stroke="#f59e0b"/>
  <circle class="marker" cx="260" cy="279.9982217333333" r="7" stroke="#f59e0b"/>
  <circle class="marker" cx="380" cy="305.90594927999996" r="7" stroke="#f59e0b"/>
  <circle class="marker" cx="500" cy="338.16034530666667" r="7" stroke="#f59e0b"/>
  <circle class="marker" cx="620" cy="332.61837976000004" r="7" stroke="#f59e0b"/>
  <circle class="marker" cx="740" cy="334.28918781333334" r="7" stroke="#f59e0b"/>

  <!-- deno/hono -->
  <polyline class="line-hono" points="140,252.64248156 260,301.5433294933333 380,325.13126492 500,330.52660864 620,334.3059634133333 740,332.0093497733333"/>
  <rect class="marker" x="133" y="245.64248156" width="14" height="14" stroke="#f59e0b"/>
  <rect class="marker" x="253" y="294.5433294933333" width="14" height="14" stroke="#f59e0b"/>
  <rect class="marker" x="373" y="318.13126492" width="14" height="14" stroke="#f59e0b"/>
  <rect class="marker" x="493" y="323.52660864" width="14" height="14" stroke="#f59e0b"/>
  <rect class="marker" x="613" y="327.3059634133333" width="14" height="14" stroke="#f59e0b"/>
  <rect class="marker" x="733" y="325.0093497733333" width="14" height="14" stroke="#f59e0b"/>

  <!-- bun/kori -->
  <polyline class="line-kori" points="140,258.10063325333334 260,271.90065275999996 380,300.45341529333336 500,342.42857202666664 620,341.66033273333335 740,341.61319354666665"/>
  <circle class="marker" cx="140" cy="258.10063325333334" r="7" stroke="#3b82f6"/>
  <circle class="marker" cx="260" cy="271.90065275999996" r="7" stroke="#3b82f6"/>
  <circle class="marker" cx="380" cy="300.45341529333336" r="7" stroke="#3b82f6"/>
  <circle class="marker" cx="500" cy="342.42857202666664" r="7" stroke="#3b82f6"/>
  <circle class="marker" cx="620" cy="341.66033273333335" r="7" stroke="#3b82f6"/>
  <circle class="marker" cx="740" cy="341.61319354666665" r="7" stroke="#3b82f6"/>

  <!-- deno/kori -->
  <polyline class="line-kori" points="140,268.79522241333336 260,291.36872432 380,313.07416701333335 500,336.73538830666666 620,337.6613434 740,341.49598716"/>
  <rect class="marker" x="133" y="261.79522241333336" width="14" height="14" stroke="#3b82f6"/>
  <rect class="marker" x="253" y="284.36872432" width="14" height="14" stroke="#3b82f6"/>
  <rect class="marker" x="373" y="306.07416701333335" width="14" height="14" stroke="#3b82f6"/>
  <rect class="marker" x="493" y="329.73538830666666" width="14" height="14" stroke="#3b82f6"/>
  <rect class="marker" x="613" y="330.6613434" width="14" height="14" stroke="#3b82f6"/>
  <rect class="marker" x="733" y="334.49598716" width="14" height="14" stroke="#3b82f6"/>

  <!-- node/fastify -->
  <polyline class="line-fastify" points="140,338.41587230666664 260,341.33621708 380,369.3618957466667"/>
  <polygon class="marker" points="140,330.41587230666664 133,344.41587230666664 147,344.41587230666664" stroke="#10b981"/>
  <polygon class="marker" points="260,333.33621708 253,347.33621708 267,347.33621708" stroke="#10b981"/>
  <polygon class="marker" points="380,361.3618957466667 373,375.3618957466667 387,375.3618957466667" stroke="#10b981"/>

  <!-- node/hono -->
  <polyline class="line-hono" points="140,350.0163440933333 260,357.14482058666664 380,381.4478562533333 500,383.05662496 620,383.0638182266667 740,383.1301724"/>
  <polygon class="marker" points="140,342.0163440933333 133,356.0163440933333 147,356.0163440933333" stroke="#f59e0b"/>
  <polygon class="marker" points="260,349.14482058666664 253,363.14482058666664 267,363.14482058666664" stroke="#f59e0b"/>
  <polygon class="marker" points="380,373.4478562533333 373,387.4478562533333 387,387.4478562533333" stroke="#f59e0b"/>
  <polygon class="marker" points="500,375.05662496 493,389.05662496 507,389.05662496" stroke="#f59e0b"/>
  <polygon class="marker" points="620,375.0638182266667 613,389.0638182266667 627,389.0638182266667" stroke="#f59e0b"/>
  <polygon class="marker" points="740,375.1301724 733,389.1301724 747,389.1301724" stroke="#f59e0b"/>

  <!-- node/kori -->
  <polyline class="line-kori" points="140,353.59775018666664 260,358.7536004 380,379.41846561333335 500,382.05444549333333 620,382.00554012 740,382.2885728933333"/>
  <polygon class="marker" points="140,345.59775018666664 133,359.59775018666664 147,359.59775018666664" stroke="#3b82f6"/>
  <polygon class="marker" points="260,350.7536004 253,364.7536004 267,364.7536004" stroke="#3b82f6"/>
  <polygon class="marker" points="380,371.41846561333335 373,385.41846561333335 387,385.41846561333335" stroke="#3b82f6"/>
  <polygon class="marker" points="500,374.05444549333333 493,388.05444549333333 507,388.05444549333333" stroke="#3b82f6"/>
  <polygon class="marker" points="620,374.00554012 613,388.00554012 627,388.00554012" stroke="#3b82f6"/>
  <polygon class="marker" points="740,374.2885728933333 733,388.2885728933333 747,388.2885728933333" stroke="#3b82f6"/>

  <!-- node/express -->
  <polyline class="line-express" points="140,382.94997693333335 260,383.87558092 380,388.26159837333336"/>
  <polygon class="marker" points="140,374.94997693333335 133,388.94997693333335 147,388.94997693333335" stroke="#ec4899"/>
  <polygon class="marker" points="260,375.87558092 253,389.87558092 267,389.87558092" stroke="#ec4899"/>
  <polygon class="marker" points="380,380.26159837333336 373,394.26159837333336 387,394.26159837333336" stroke="#ec4899"/>

  <!-- Legend -->
  <g transform="translate(100, 460)">
    <circle class="marker" cx="0" cy="0" r="7" stroke="#8b5cf6"/>
    <text class="label" x="15" y="5" font-size="14">bun/elysia</text>
    <circle class="marker" cx="150" cy="0" r="7" stroke="#f59e0b"/>
    <text class="label" x="165" y="5" font-size="14">bun/hono</text>
    <circle class="marker" cx="300" cy="0" r="7" stroke="#3b82f6"/>
    <text class="label" x="315" y="5" font-size="14">bun/kori</text>
    <rect class="marker" x="-7" y="13" width="14" height="14" stroke="#f59e0b"/>
    <text class="label" x="15" y="25" font-size="14">deno/hono</text>
    <rect class="marker" x="143" y="13" width="14" height="14" stroke="#3b82f6"/>
    <text class="label" x="165" y="25" font-size="14">deno/kori</text>
    <polygon class="marker" points="0,32 -7,46 7,46" stroke="#10b981"/>
    <text class="label" x="15" y="45" font-size="14">node/fastify</text>
    <polygon class="marker" points="150,32 143,46 157,46" stroke="#f59e0b"/>
    <text class="label" x="165" y="45" font-size="14">node/hono</text>
    <polygon class="marker" points="300,32 293,46 307,46" stroke="#3b82f6"/>
    <text class="label" x="315" y="45" font-size="14">node/kori</text>
    <polygon class="marker" points="450,32 443,46 457,46" stroke="#ec4899"/>
    <text class="label" x="465" y="45" font-size="14">node/express</text>
  </g>
</svg>