<svg width="1000" height="540" xmlns="http://www.w3.org/2000/svg">
  <defs>
    <style>
      .chart-bg { fill: #2d2d2d; }
      .stripe { fill: rgba(255,255,255,0.03); }
      .grid-line { stroke: rgba(255,255,255,0.1); stroke-width: 1; }
      .axis-line { stroke: rgba(255,255,255,0.3); stroke-width: 2; }
      .label { fill: #b0b0b0; font-family: -apple-system, BlinkMacSystemFont, "Segoe UI", Roboto, sans-serif; font-size: 16px; }
      .title { fill: #ffffff; font-family: -apple-system, BlinkMacSystemFont, "Segoe UI", Roboto, sans-serif; font-size: 16px; font-weight: normal; }
      .line-elysia { stroke: #8b5cf6; fill: none; stroke-width: 2; }
      .line-kori { stroke: #3b82f6; fill: none; stroke-width: 2; }
      .line-hono { stroke: #f59e0b; fill: none; stroke-width: 2; }
      .line-fastify { stroke: #10b981; fill: none; stroke-width: 2; }
      .line-express { stroke: #ec4899; fill: none; stroke-width: 2; }
      .marker { fill: #2d2d2d; stroke-width: 2; }
    </style>
  </defs>

  <rect class="chart-bg" width="1000" height="540"/>

  <!-- Alternating stripes -->
  <rect class="stripe" x="200" y="60" width="120" height="340"/>
  <rect class="stripe" x="440" y="60" width="120" height="340"/>
  <rect class="stripe" x="680" y="60" width="120" height="340"/>

  <!-- Grid lines -->
  <line class="grid-line" x1="80" y1="400" x2="920" y2="400"/>
  <line class="grid-line" x1="80" y1="332" x2="920" y2="332"/>
  <line class="grid-line" x1="80" y1="264" x2="920" y2="264"/>
  <line class="grid-line" x1="80" y1="196" x2="920" y2="196"/>
  <line class="grid-line" x1="80" y1="128" x2="920" y2="128"/>
  <line class="grid-line" x1="80" y1="60" x2="920" y2="60"/>

  <!-- Axes -->
  <line class="axis-line" x1="80" y1="60" x2="80" y2="400"/>
  <line class="axis-line" x1="80" y1="400" x2="920" y2="400"/>

  <!-- Y-axis labels -->
  <text class="label" x="70" y="405" text-anchor="end">0%</text>
  <text class="label" x="70" y="337" text-anchor="end">20%</text>
  <text class="label" x="70" y="269" text-anchor="end">40%</text>
  <text class="label" x="70" y="201" text-anchor="end">60%</text>
  <text class="label" x="70" y="133" text-anchor="end">80%</text>
  <text class="label" x="70" y="65" text-anchor="end">100%</text>

  <!-- Y-axis title -->
  <text class="title" x="20" y="230" text-anchor="middle" transform="rotate(-90, 20, 230)">Relative Performance (%)</text>

  <!-- X-axis labels -->
  <text class="label" x="140" y="425" text-anchor="middle">ping</text>
  <text class="label" x="260" y="425" text-anchor="middle">query</text>
  <text class="label" x="380" y="425" text-anchor="middle">body</text>
  <text class="label" x="500" y="425" text-anchor="middle">zod</text>
  <text class="label" x="620" y="425" text-anchor="middle">valibot</text>
  <text class="label" x="740" y="425" text-anchor="middle">arktype</text>
  <text class="label" x="860" y="425" text-anchor="middle">elysia-t</text>

  <!-- bun/elysia -->
  <polyline class="line-elysia" points="140,60 260,107.23994427430125 380,60 500,60 620,60 740,60 860,60"/>
  <circle class="marker" cx="140" cy="60" r="7" stroke="#8b5cf6"/>
  <circle class="marker" cx="260" cy="107.23994427430125" r="7" stroke="#8b5cf6"/>
  <circle class="marker" cx="380" cy="60" r="7" stroke="#8b5cf6"/>
  <circle class="marker" cx="500" cy="60" r="7" stroke="#8b5cf6"/>
  <circle class="marker" cx="620" cy="60" r="7" stroke="#8b5cf6"/>
  <circle class="marker" cx="740" cy="60" r="7" stroke="#8b5cf6"/>
  <circle class="marker" cx="860" cy="60" r="7" stroke="#8b5cf6"/>

  <!-- deno/hono -->
  <polyline class="line-hono" points="140,271.37592325389375 260,108.85499870416442 380,151.2106348167641 500,126.60418636765615 620,109.97200160365696 740,109.84451384566404"/>
  <rect class="marker" x="133" y="264.37592325389375" width="14" height="14" stroke="#f59e0b"/>
  <rect class="marker" x="253" y="101.85499870416442" width="14" height="14" stroke="#f59e0b"/>
  <rect class="marker" x="373" y="144.2106348167641" width="14" height="14" stroke="#f59e0b"/>
  <rect class="marker" x="493" y="119.60418636765615" width="14" height="14" stroke="#f59e0b"/>
  <rect class="marker" x="613" y="102.97200160365696" width="14" height="14" stroke="#f59e0b"/>
  <rect class="marker" x="733" y="102.84451384566404" width="14" height="14" stroke="#f59e0b"/>

  <!-- deno/kori -->
  <polyline class="line-kori" points="140,292.28524643539106 260,60 380,96.73830582351496 500,127.71575003268708 620,130.17024423527016 740,114.51766684261565"/>
  <rect class="marker" x="133" y="285.28524643539106" width="14" height="14" stroke="#3b82f6"/>
  <rect class="marker" x="253" y="53" width="14" height="14" stroke="#3b82f6"/>
  <rect class="marker" x="373" y="89.73830582351496" width="14" height="14" stroke="#3b82f6"/>
  <rect class="marker" x="493" y="120.71575003268708" width="14" height="14" stroke="#3b82f6"/>
  <rect class="marker" x="613" y="123.17024423527016" width="14" height="14" stroke="#3b82f6"/>
  <rect class="marker" x="733" y="107.51766684261565" width="14" height="14" stroke="#3b82f6"/>

  <!-- bun/hono -->
  <polyline class="line-hono" points="140,303.70113670691137 260,149.15759605255127 380,108.10955897546341 500,111.77456733845418 620,95.5295412381285 740,100.55873623405552"/>
  <circle class="marker" cx="140" cy="303.70113670691137" r="7" stroke="#f59e0b"/>
  <circle class="marker" cx="260" cy="149.15759605255127" r="7" stroke="#f59e0b"/>
  <circle class="marker" cx="380" cy="108.10955897546341" r="7" stroke="#f59e0b"/>
  <circle class="marker" cx="500" cy="111.77456733845418" r="7" stroke="#f59e0b"/>
  <circle class="marker" cx="620" cy="95.5295412381285" r="7" stroke="#f59e0b"/>
  <circle class="marker" cx="740" cy="100.55873623405552" r="7" stroke="#f59e0b"/>

  <!-- bun/kori -->
  <polyline class="line-kori" points="140,304.7639616505553 260,121.83934664127645 380,66.90379915060072 500,138.50302020165458 620,123.10876366056596 740,129.71746210718516"/>
  <circle class="marker" cx="140" cy="304.7639616505553" r="7" stroke="#3b82f6"/>
  <circle class="marker" cx="260" cy="121.83934664127645" r="7" stroke="#3b82f6"/>
  <circle class="marker" cx="380" cy="66.90379915060072" r="7" stroke="#3b82f6"/>
  <circle class="marker" cx="500" cy="138.50302020165458" r="7" stroke="#3b82f6"/>
  <circle class="marker" cx="620" cy="123.10876366056596" r="7" stroke="#3b82f6"/>
  <circle class="marker" cx="740" cy="129.71746210718516" r="7" stroke="#3b82f6"/>

  <!-- node/fastify -->
  <polyline class="line-fastify" points="140,332.01803662099536 260,147.5273685474834 380,205.55638559764589"/>
  <polygon class="marker" points="140,324.01803662099536 133,338.01803662099536 147,338.01803662099536" stroke="#10b981"/>
  <polygon class="marker" points="260,139.5273685474834 253,153.5273685474834 267,153.5273685474834" stroke="#10b981"/>
  <polygon class="marker" points="380,197.55638559764589 373,211.55638559764589 387,211.55638559764589" stroke="#10b981"/>

  <!-- node/hono -->
  <polyline class="line-hono" points="140,338.61372535727935 260,224.78511221317842 380,289.8124018048826 500,271.64946996733875 620,271.0651826030032 740,263.67026187563"/>
  <polygon class="marker" points="140,330.61372535727935 133,344.61372535727935 147,344.61372535727935" stroke="#f59e0b"/>
  <polygon class="marker" points="260,216.78511221317842 253,230.78511221317842 267,230.78511221317842" stroke="#f59e0b"/>
  <polygon class="marker" points="380,281.8124018048826 373,295.8124018048826 387,295.8124018048826" stroke="#f59e0b"/>
  <polygon class="marker" points="500,263.64946996733875 493,277.64946996733875 507,277.64946996733875" stroke="#f59e0b"/>
  <polygon class="marker" points="620,263.0651826030032 613,277.0651826030032 627,277.0651826030032" stroke="#f59e0b"/>
  <polygon class="marker" points="740,255.67026187563 733,269.67026187563 747,269.67026187563" stroke="#f59e0b"/>

  <!-- node/kori -->
  <polyline class="line-kori" points="140,340.20207190131924 260,220.19354634129235 380,274.8490015805152 500,268.98358912503204 620,272.3561316389952 740,255.21884884038704"/>
  <polygon class="marker" points="140,332.20207190131924 133,346.20207190131924 147,346.20207190131924" stroke="#3b82f6"/>
  <polygon class="marker" points="260,212.19354634129235 253,226.19354634129235 267,226.19354634129235" stroke="#3b82f6"/>
  <polygon class="marker" points="380,266.8490015805152 373,280.8490015805152 387,280.8490015805152" stroke="#3b82f6"/>
  <polygon class="marker" points="500,260.98358912503204 493,274.98358912503204 507,274.98358912503204" stroke="#3b82f6"/>
  <polygon class="marker" points="620,264.3561316389952 613,278.3561316389952 627,278.3561316389952" stroke="#3b82f6"/>
  <polygon class="marker" points="740,247.21884884038704 733,261.21884884038707 747,261.21884884038707" stroke="#3b82f6"/>

  <!-- node/express -->
  <polyline class="line-express" points="140,382.1147430503571 260,338.61838018858214 380,336.11319287765156"/>
  <polygon class="marker" points="140,374.1147430503571 133,388.1147430503571 147,388.1147430503571" stroke="#ec4899"/>
  <polygon class="marker" points="260,330.61838018858214 253,344.61838018858214 267,344.61838018858214" stroke="#ec4899"/>
  <polygon class="marker" points="380,328.11319287765156 373,342.11319287765156 387,342.11319287765156" stroke="#ec4899"/>

  <!-- Legend -->
  <g transform="translate(100, 460)">
    <circle class="marker" cx="0" cy="0" r="7" stroke="#8b5cf6"/>
    <text class="label" x="15" y="5" font-size="14">bun/elysia</text>
    <circle class="marker" cx="150" cy="0" r="7" stroke="#f59e0b"/>
    <text class="label" x="165" y="5" font-size="14">bun/hono</text>
    <circle class="marker" cx="300" cy="0" r="7" stroke="#3b82f6"/>
    <text class="label" x="315" y="5" font-size="14">bun/kori</text>
    <rect class="marker" x="-7" y="13" width="14" height="14" stroke="#f59e0b"/>
    <text class="label" x="15" y="25" font-size="14">deno/hono</text>
    <rect class="marker" x="143" y="13" width="14" height="14" stroke="#3b82f6"/>
    <text class="label" x="165" y="25" font-size="14">deno/kori</text>
    <polygon class="marker" points="0,32 -7,46 7,46" stroke="#10b981"/>
    <text class="label" x="15" y="45" font-size="14">node/fastify</text>
    <polygon class="marker" points="150,32 143,46 157,46" stroke="#f59e0b"/>
    <text class="label" x="165" y="45" font-size="14">node/hono</text>
    <polygon class="marker" points="300,32 293,46 307,46" stroke="#3b82f6"/>
    <text class="label" x="315" y="45" font-size="14">node/kori</text>
    <polygon class="marker" points="450,32 443,46 457,46" stroke="#ec4899"/>
    <text class="label" x="465" y="45" font-size="14">node/express</text>
  </g>
</svg>